<?xml version="1.0" standalone="no"?>
<!DOCTYPE svg PUBLIC "-//W3C//DTD SVG 20010904//EN"
 "http://www.w3.org/TR/2001/REC-SVG-20010904/DTD/svg10.dtd">
<svg version="1.0" xmlns="http://www.w3.org/2000/svg"
 width="47.000000pt" height="47.000000pt" viewBox="0 0 47.000000 47.000000"
 preserveAspectRatio="xMidYMid meet">

<g transform="translate(0.000000,47.000000) scale(0.100000,-0.100000)"
fill="#000000" stroke="none">
<path d="M155 310 c-15 -25 39 -71 65 -55 15 10 12 22 -12 45 -24 22 -43 26
-53 10z"/>
<path d="M140 236 c19 -26 38 -50 42 -53 5 -2 27 10 49 28 30 24 37 34 27 40
-8 6 -18 2 -26 -10 -12 -17 -18 -18 -40 -8 -15 6 -40 20 -57 31 l-30 21 35
-49z"/>
</g>
</svg>
