<?xml version="1.0" standalone="no"?>
<!DOCTYPE svg PUBLIC "-//W3C//DTD SVG 20010904//EN"
 "http://www.w3.org/TR/2001/REC-SVG-20010904/DTD/svg10.dtd">
<svg version="1.0" xmlns="http://www.w3.org/2000/svg"
 width="47.000000pt" height="47.000000pt" viewBox="0 0 47.000000 47.000000"
 preserveAspectRatio="xMidYMid meet">

<g transform="translate(0.000000,47.000000) scale(0.100000,-0.100000)"
fill="#000000" stroke="none">
<path d="M80 312 c0 -110 4 -162 12 -170 8 -8 66 -12 195 -12 l183 0 0 170 0
170 -195 0 -195 0 0 -158z m206 43 c4 -8 12 -15 20 -15 8 0 14 -7 14 -15 0 -8
-6 -15 -14 -15 -8 0 -16 -5 -18 -12 -4 -10 -14 -9 -46 1 -44 15 -65 47 -41 62
23 14 79 10 85 -6z m170 -11 c-3 -9 -6 -20 -6 -25 0 -5 -11 -9 -25 -9 -14 0
-25 -4 -25 -10 0 -5 -9 -10 -20 -10 -11 0 -20 5 -20 10 0 6 7 10 16 10 9 0 25
11 36 25 22 28 54 35 44 9z"/>
<path d="M220 345 c0 -23 47 -42 63 -26 9 10 8 15 -7 27 -26 18 -56 18 -56 -1z"/>
</g>
</svg>
