<?xml version="1.0" standalone="no"?>
<!DOCTYPE svg PUBLIC "-//W3C//DTD SVG 20010904//EN"
 "http://www.w3.org/TR/2001/REC-SVG-20010904/DTD/svg10.dtd">
<svg version="1.0" xmlns="http://www.w3.org/2000/svg"
 width="47.000000pt" height="47.000000pt" viewBox="0 0 47.000000 47.000000"
 preserveAspectRatio="xMidYMid meet">
<metadata>
Created by potrace 1.15, written by Peter Selinger 2001-2017
</metadata>
<g transform="translate(0.000000,47.000000) scale(0.100000,-0.100000)"
fill="#000000" stroke="none">
<path d="M60 442 c0 -16 21 -44 116 -156 36 -42 31 -62 -21 -86 -43 -20 -155
-122 -155 -141 0 -18 40 -9 62 13 13 13 47 42 78 65 30 23 61 48 69 54 10 9
18 6 38 -17 14 -16 32 -42 40 -59 19 -36 75 -105 86 -105 4 0 7 12 7 26 0 28
-38 100 -81 155 -16 20 -29 39 -29 41 0 3 34 29 75 59 56 40 75 59 75 76 0 13
-3 23 -6 23 -4 0 -39 -25 -78 -57 -39 -31 -76 -60 -82 -65 -11 -8 -51 40 -134
156 -27 38 -60 48 -60 18z"/>
</g>
</svg>
