<?xml version="1.0" standalone="no"?>
<!DOCTYPE svg PUBLIC "-//W3C//DTD SVG 20010904//EN"
 "http://www.w3.org/TR/2001/REC-SVG-20010904/DTD/svg10.dtd">
<svg version="1.0" xmlns="http://www.w3.org/2000/svg"
 width="47.000000pt" height="47.000000pt" viewBox="0 0 47.000000 47.000000"
 preserveAspectRatio="xMidYMid meet">
<metadata>
Created by potrace 1.15, written by Peter Selinger 2001-2017
</metadata>
<g transform="translate(0.000000,47.000000) scale(0.100000,-0.100000)"
 stroke="none">
<path d="M31 446 c-11 -13 6 -32 104 -116 17 -14 47 -44 69 -67 l39 -42 -54
-34 c-53 -34 -73 -54 -136 -134 -38 -48 -39 -53 -15 -53 9 0 64 45 122 99
l105 100 80 -77 c44 -43 90 -86 103 -96 22 -19 22 -19 22 11 0 24 -17 48 -79
114 l-79 85 79 73 c57 52 79 79 79 97 0 13 -3 24 -7 24 -5 -1 -48 -39 -97 -85
l-89 -84 -41 36 c-23 20 -68 65 -101 99 -61 65 -83 75 -104 50z"/>
</g>
</svg>
