<?xml version="1.0" standalone="no"?>
<!DOCTYPE svg PUBLIC "-//W3C//DTD SVG 20010904//EN"
 "http://www.w3.org/TR/2001/REC-SVG-20010904/DTD/svg10.dtd">
<svg version="1.0" xmlns="http://www.w3.org/2000/svg"
 width="47.000000pt" height="47.000000pt" viewBox="0 0 47.000000 47.000000"
 preserveAspectRatio="xMidYMid meet">
<metadata>
Created by potrace 1.15, written by Peter Selinger 2001-2017
</metadata>
<g transform="translate(0.000000,47.000000) scale(0.100000,-0.100000)"
fill="#000000" stroke="none">
<path d="M36 453 c-3 -4 35 -48 85 -99 69 -69 89 -95 83 -107 -5 -8 -44 -52
-86 -96 -43 -45 -78 -88 -78 -96 0 -19 14 -19 30 0 6 8 30 25 53 39 26 15 55
45 77 80 19 31 38 56 42 56 3 0 46 -42 95 -94 48 -52 97 -96 108 -98 42 -7 21
31 -70 126 -53 55 -94 103 -93 107 2 5 35 44 75 87 40 44 69 82 66 86 -4 3
-22 6 -42 5 -24 0 -30 -3 -18 -7 14 -6 6 -18 -48 -72 l-65 -64 -52 50 c-56 54
-125 104 -144 104 -6 0 -14 -3 -18 -7z"/>
</g>
</svg>
